<?xml version="1.0" encoding="UTF-8" standalone="no"?>
<!-- Created with Inkscape (http://www.inkscape.org/) -->

<svg
   width="1280"
   height="720"
   viewBox="0 0 338.66667 190.5"
   version="1.1"
   id="svg5"
   inkscape:version="1.1.1 (3bf5ae0d25, 2021-09-20)"
   sodipodi:docname="asaa2.svg"
   xmlns:inkscape="http://www.inkscape.org/namespaces/inkscape"
   xmlns:sodipodi="http://sodipodi.sourceforge.net/DTD/sodipodi-0.dtd"
   xmlns="http://www.w3.org/2000/svg"
   xmlns:svg="http://www.w3.org/2000/svg">
  <sodipodi:namedview
     id="namedview7"
     pagecolor="#ffffff"
     bordercolor="#666666"
     borderopacity="1.0"
     inkscape:pageshadow="2"
     inkscape:pageopacity="0.0"
     inkscape:pagecheckerboard="false"
     inkscape:document-units="mm"
     showgrid="false"
     inkscape:zoom="0.7578125"
     inkscape:cx="628.7835"
     inkscape:cy="400.49484"
     inkscape:window-width="1920"
     inkscape:window-height="1001"
     inkscape:window-x="-9"
     inkscape:window-y="-9"
     inkscape:window-maximized="1"
     inkscape:current-layer="layer1"
     width="209mm"
     borderlayer="false"
     units="px" />
  <defs
     id="defs2" />
  <g
     inkscape:label="Layer 1"
     inkscape:groupmode="layer"
     id="layer1">
    <path
       style="fill:#ffccaa;fill-opacity:1;stroke-width:0.0824742"
       d=""
       id="path8568"
       transform="scale(0.26458333)" />
    <rect
       style="fill:#000000;fill-rule:evenodd;stroke-width:0.205231"
       id="rect2389"
       width="367.64536"
       height="59.449806"
       x="-14.489345"
       y="65.542625" />
    <g
       id="g2365"
       transform="translate(-1.439486,7.4628682)">
      <path
         style="fill:#000000;fill-opacity:1;fill-rule:nonzero;stroke:none;stroke-width:0.446818"
         id="path104"
         d="m 141.38992,62.34806 c -4.0276,4.15109 -8.06723,8.21939 -11.73487,12.74277 -2.42422,3.28279 -4.45683,6.94217 -5.56074,10.97671 -0.20772,0.7592 -0.34831,1.53748 -0.52247,2.30622 -0.74327,4.39592 -1.10089,8.88201 -0.78088,13.3401 0.17364,2.52843 1.22786,4.7567 2.27023,6.97844 0,0 1.39492,-0.84781 1.39492,-0.84781 v 0 c -1.03903,-2.19923 -2.0834,-4.40575 -2.25342,-6.91265 -0.31741,-4.44057 0.0311,-8.91062 0.79158,-13.28607 0.17723,-0.76438 0.32186,-1.53821 0.53168,-2.29314 1.11538,-4.01293 3.14249,-7.6509 5.56935,-10.91128 3.67383,-4.52126 7.73624,-8.61458 11.78349,-12.75028 0,0 -1.48887,0.65699 -1.48887,0.65699 z" />
      <path
         style="fill:#000000;fill-opacity:1;fill-rule:nonzero;stroke:none;stroke-width:0.446818"
         id="path106"
         d="m 140.31881,62.54246 c 2.67621,4.64787 3.28445,9.13426 3.93804,14.45689 0.52639,3.96803 0.5986,7.951 -0.0768,11.9026 -0.38462,2.25028 -0.63388,2.835 -1.2841,4.97565 -0.98338,2.56558 -1.95282,5.1829 -3.39867,7.50425 -0.71305,1.14483 -1.26711,1.769 -2.09533,2.79302 -1.81108,1.94534 -3.73631,3.78354 -5.96911,5.15646 0.85301,-0.71393 0.65317,-0.43931 -0.25598,-0.17783 -0.61081,0.1757 -0.9634,0.20966 -1.58171,0.30372 0,0 -1.29417,1.03223 -1.29417,1.03223 v 0 c 1.72947,-0.24193 3.12764,-0.66993 4.63506,-1.77486 2.21408,-1.40281 4.1397,-3.24094 5.93405,-5.20279 0.84355,-1.05927 1.3496,-1.632 2.07672,-2.8168 1.43328,-2.33545 2.4088,-4.95311 3.37305,-7.53292 0.64645,-2.16568 0.88452,-2.72354 1.26509,-4.99845 0.66326,-3.96477 0.57903,-7.95601 0.0425,-11.93351 -0.39027,-3.1951 -0.71891,-6.43115 -1.68302,-9.50519 -0.55463,-1.76841 -1.46387,-3.3806 -2.22802,-5.04677 0,0 -1.3976,0.8643 -1.3976,0.8643 z" />
      <path
         style="fill:#000000;fill-opacity:1;fill-rule:nonzero;stroke:none;stroke-width:0.446818"
         id="path108"
         d="m 199.94743,62.725824 c -1.04423,5.81125 -1.81507,11.68021 -2.53104,17.54779 -0.58003,5.89006 -1.2672,11.79623 -1.26832,17.72699 0.10757,3.477586 0.93814,6.868136 1.99799,10.140276 0.35695,1.16364 0.8125,2.28175 1.32345,3.3755 0,0 1.40147,-0.852 1.40147,-0.852 v 0 c -0.51625,-1.08215 -0.97039,-2.19151 -1.32675,-3.34723 -1.05284,-3.2547 -1.88009,-6.62516 -1.98389,-10.084276 0.003,-5.91496 0.63851,-11.809 1.23079,-17.68282 0.72254,-5.88583 1.51727,-11.77036 2.60789,-17.59192 0,0 -1.45159,0.76769 -1.45159,0.76769 z" />
      <path
         style="fill:#000000;fill-opacity:1;fill-rule:nonzero;stroke:none;stroke-width:0.446818"
         id="path110"
         d="m 203.12448,63.29653 c 2.68896,1.93402 5.11055,4.2472 7.50161,6.5737 0.60825,0.54729 2.18868,1.91169 2.70074,2.59698 1.71698,2.29773 2.42352,5.39356 3.09837,8.17274 0.94036,4.56059 0.97479,9.25102 1.03864,13.89801 0.005,3.86677 0.10463,7.82244 -0.98663,11.54789 -1.21586,3.15036 -3.70148,5.23968 -6.10265,7.32878 -1.99629,1.72605 -2.86841,2.24173 -5.32132,2.92787 -1.39357,0.29566 -2.87638,0.48331 -4.23626,-0.0469 -1.01144,-1.05472 -1.45454,-2.66241 -1.92707,-4.05295 -0.80203,-2.50616 -1.4576,-5.02695 -1.8296,-7.64636 -0.4256,-3.54586 -0.48354,-7.12489 -0.52646,-10.69451 -0.0229,-2.60539 -0.008,-5.21087 -0.003,-7.81629 0.007,-2.40836 0.005,-4.81673 0.005,-7.22511 -0.002,-2.92965 -0.001,-5.85933 -8.7e-4,-8.78898 0.0902,-2.25215 0.50483,-5.10261 1.49308,-7.13045 0.20861,-0.42806 0.49205,-0.80963 0.73807,-1.21445 0.68117,-0.84455 0.90492,-1.19985 1.69649,-1.89517 0.26363,-0.23157 0.58801,-0.38196 0.83421,-0.63444 0.16909,-0.1734 -0.81803,0.30323 -0.59926,0.39347 0.25522,0.10536 0.50293,-0.23175 0.76177,-0.32644 0.23359,-0.0855 0.47556,-0.14216 0.71334,-0.21318 1.65783,-0.39132 1.34527,0.4599 1.94038,1.73715 0.14191,0.30452 0.33622,0.57788 0.50432,0.86683 0,0 1.39309,-0.86446 1.39309,-0.86446 v 0 c -0.16218,-0.27931 -0.35091,-0.54302 -0.48677,-0.83792 -0.59891,-1.29992 -0.35391,-2.32069 -2.06849,-1.95189 -2.46607,0.68025 -4.61803,2.25621 -6.15374,4.41387 -0.24249,0.41516 -0.52129,0.80856 -0.72745,1.2455 -1.01149,2.14379 -1.35536,4.82817 -1.46519,7.18691 8.6e-4,2.93015 0.002,5.86029 -0.002,8.79042 -0.001,2.40909 -0.005,4.81816 -0.01,7.22723 -0.007,2.60401 -0.01,5.20818 0.0164,7.8121 0.0492,3.57626 0.10954,7.16197 0.53796,10.71421 0.37075,2.63147 1.0203,5.16764 1.83142,7.68354 0.48779,1.44574 0.94801,3.0799 1.98703,4.18738 1.37026,0.58185 2.88076,0.411 4.30212,0.12735 3.00704,-0.8052 5.6669,-2.55165 8.07545,-4.60697 2.41347,-2.10716 4.89586,-4.23425 6.07671,-7.42608 1.04894,-3.74837 0.95264,-7.70384 0.94082,-11.58252 -0.0618,-4.6604 -0.0969,-9.36539 -1.05019,-13.93714 -0.68557,-2.80658 -1.40767,-5.93208 -3.13481,-8.25741 -0.51078,-0.68769 -2.09151,-2.05087 -2.70331,-2.60104 -2.39704,-2.32964 -4.82095,-4.64377 -7.4912,-6.61726 0,0 -1.36123,0.93599 -1.36123,0.93599 z" />
      <path
         style="fill:#000000;stroke-width:0.446818"
         id="path688"
         d="m 125.17761,107.48861 c 0.30856,1.00738 0.88952,1.87855 1.52691,2.67719 0.5916,0.68384 1.3665,0.96847 2.21105,1.06714 0.548,0.0427 1.04092,-0.12926 1.53229,-0.36015 0.0731,-0.0347 0.1462,-0.0693 0.21929,-0.10397 0,0 1.26195,-1.06862 1.26195,-1.06862 v 0 c -0.0724,0.0356 -0.14475,0.0713 -0.21714,0.10693 -0.074,0.0326 -0.14791,0.0652 -0.22186,0.0979 -0.0674,0.037 -0.13282,0.0783 -0.20213,0.11112 -0.33789,0.15979 -0.70409,0.20664 -1.06993,0.22524 -0.81679,-0.0544 -1.57489,-0.30372 -2.16,-0.94625 -0.63209,-0.76847 -1.20524,-1.62261 -1.45394,-2.62568 0,0 -1.42649,0.81912 -1.42649,0.81912 z" />
      <path
         style="fill:#000000;stroke-width:0.446818"
         id="path696"
         d="m 131.16067,93.811174 c -0.8866,1.19436 -1.71168,2.43941 -2.55704,3.66698 0,0 1.45973,-0.67285 1.45973,-0.67285 v 0 c 0.8511,-1.23192 1.68293,-2.48159 2.58929,-3.66852 0,0 -1.49198,0.67439 -1.49198,0.67439 z" />
      <path
         style="fill:#000000;stroke-width:0.446818"
         id="path700"
         d="m 202.90357,94.868774 c -0.34991,1.5234 -0.58423,3.07053 -0.81432,4.61811 0,0 1.43125,-0.74774 1.43125,-0.74774 v 0 c 0.23528,-1.54705 0.47211,-3.09465 0.83899,-4.61426 0,0 -1.45592,0.74389 -1.45592,0.74389 z" />
      <path
         style="fill:#f2f2f2;stroke-width:0.147404"
         d="m 128.18579,109.20998 c -0.34496,-0.33926 -0.84053,-1.05588 -1.10128,-1.59247 -0.39792,-0.81888 -0.52241,-0.96269 -0.77483,-0.8951 -0.26544,0.0711 -0.37012,-0.0979 -0.89192,-1.43938 -0.81591,-2.0977 -1.00661,-2.96882 -1.18709,-5.422705 -0.25729,-3.49827 0.23423,-9.49692 1.08787,-13.27641 0.92571,-4.09863 3.12652,-8.56105 6.07111,-12.30994 1.31773,-1.67766 4.77226,-5.52322 7.38352,-8.21929 l 2.17651,-2.24719 0.51351,1.19833 c 1.18931,2.77541 1.8934,5.7287 2.54664,10.68177 0.71793,5.44362 0.72057,9.76421 0.008,13.51793 -0.45086,2.37587 -0.90493,3.91606 -1.87566,6.36221 -1.98377,4.998925 -3.37059,7.210075 -6.33061,10.093495 -1.6898,1.64607 -3.26197,2.8997 -3.97144,3.16679 -0.29859,0.1124 -0.92387,0.28662 -1.38951,0.38714 -0.46564,0.10053 -0.98884,0.27928 -1.16268,0.39723 -0.42278,0.28685 -0.38903,0.29917 -1.10237,-0.40241 z m 1.25174,-12.009805 c 0.53449,-0.24446 0.86079,-0.60293 1.95106,-2.14344 0.72007,-1.01744 1.28145,-1.87951 1.24752,-1.91572 -0.034,-0.0362 -0.39475,0.0818 -0.80181,0.26235 -0.65513,0.29049 -0.87573,0.52231 -1.92123,2.01894 -1.65688,2.37182 -1.64052,2.31068 -0.47554,1.77787 z"
         id="path854" />
      <path
         style="fill:#f9f9f9;stroke-width:0.147404"
         d="m 201.32761,116.36057 c -0.83706,-0.27449 -1.40489,-1.26929 -2.29545,-4.02144 -0.67094,-2.07345 -1.43363,-4.88269 -1.42299,-5.24133 0.004,-0.13203 0.22348,0.39569 0.48791,1.17271 0.26444,0.77701 0.67428,1.85393 0.91078,2.39315 l 0.42998,0.9804 0.6635,-0.39567 c 0.36492,-0.21763 0.69473,-0.48253 0.7329,-0.58868 0.0382,-0.10615 -0.0942,-0.53756 -0.29422,-0.95867 -0.47411,-0.99828 -1.5743,-4.43284 -2.00819,-6.26916 -0.72507,-3.06867 -0.8456,-4.155941 -0.83548,-7.536901 0.0214,-7.159 1.52284,-21.17988 3.41368,-31.87807 0.19782,-1.11925 0.33065,-2.06596 0.29517,-2.10382 -0.0355,-0.0378 -0.38626,0.10514 -0.77952,0.31777 -0.67101,0.3628 -0.72497,0.43606 -0.87671,1.19025 -0.61251,3.0443 -2.11987,14.05253 -2.71619,19.83624 l -0.40817,3.95877 0.0358,-9.66855 c 0.0343,-9.26929 0.0484,-9.7267 0.34148,-11.07695 0.57955,-2.66998 1.26712,-4.11214 2.72413,-5.71387 0.88386,-0.97165 1.55119,-1.4025 2.53754,-1.63836 0.53138,-0.12705 0.71819,-0.11194 0.99325,0.0804 0.18633,0.13026 0.34022,0.32091 0.34198,0.42365 0.002,0.10275 0.19297,0.59793 0.42491,1.10039 0.23194,0.50246 0.42315,0.95818 0.42491,1.01272 0.002,0.0545 -0.22532,0.24301 -0.50462,0.41883 -0.30335,0.19098 -0.46745,0.38935 -0.40758,0.49272 0.0554,0.0957 -0.041,0.28666 -0.21559,0.4272 l -0.31581,0.25417 0.83043,0.6217 c 2.02044,1.51261 6.71034,5.7812 8.82875,8.03565 1.62815,1.7327 2.43865,3.56788 3.47553,7.86947 0.79722,3.30735 1.08856,6.47987 1.23525,13.4513 0.12687,6.02944 -0.17417,10.152581 -0.91138,12.482551 -0.60304,1.90589 -2.07634,3.89061 -4.53585,6.11034 -3.10088,2.79858 -3.96105,3.38023 -6.04891,4.09035 -1.35405,0.46052 -3.69575,0.65131 -4.55119,0.37078 z m 2.66141,-19.912251 c 0.24294,-1.30765 0.43039,-2.38717 0.41655,-2.39892 -0.0138,-0.0118 -0.37573,0.15904 -0.80423,0.37956 -0.66329,0.34133 -0.79526,0.48008 -0.88792,0.93347 -0.12438,0.6086 -0.68759,4.01936 -0.68759,4.164 0,0.0526 0.34233,-0.0835 0.76074,-0.30247 l 0.76074,-0.39809 z"
         id="path893" />
      <path
         style="fill:#f9f9f9;stroke-width:0.208461"
         d="m 128.04192,108.93074 c -0.29974,-0.38008 -0.67326,-0.95574 -0.83005,-1.27925 -0.15679,-0.32351 -0.50383,-0.74113 -0.77119,-0.92804 -0.49167,-0.34373 -1.71706,-3.15642 -1.84986,-4.24603 -0.0216,-0.17765 -0.10854,-0.8985 -0.19308,-1.60191 -0.47931,-3.98767 0.18127,-11.41414 1.39937,-15.73207 0.63051,-2.23505 2.25552,-5.76561 3.64268,-7.91422 0.60444,-0.93624 1.09899,-1.73857 1.09899,-1.78296 0,-0.0444 0.20433,-0.31535 0.45407,-0.60213 0.24975,-0.28678 0.80689,-0.94524 1.2381,-1.46325 0.43121,-0.51802 2.56538,-2.85699 4.74259,-5.19773 l 3.95856,-4.25587 0.48725,1.1336 c 0.26799,0.62349 0.50988,1.23051 0.53753,1.34894 0.0276,0.11843 0.20155,0.65137 0.38642,1.18431 0.18488,0.53294 0.37865,1.21122 0.4306,1.5073 0.052,0.29608 0.17799,0.87747 0.28008,1.29198 0.19867,0.80662 1.00293,5.92507 1.09962,6.99819 0.59505,6.60421 0.5035,8.28535 -0.79178,14.53883 -0.0372,0.17991 -0.29769,0.93087 -0.57872,1.66879 -0.28102,0.73793 -0.47873,1.34168 -0.43935,1.34168 0.20405,0 -2.80761,6.08468 -3.49597,7.06315 -2.08059,2.95749 -5.71163,6.28091 -7.50175,6.86623 -0.61048,0.19961 -1.20078,0.3938 -1.31178,0.43152 -1.1028,0.37484 -1.45597,0.30906 -1.99233,-0.37106 z m 1.47378,-11.72115 c 0.48482,-0.2675 0.94281,-0.7656 1.789,-1.94569 1.45092,-2.02344 1.52436,-2.30661 0.49832,-1.92161 -0.79374,0.29784 -3.63929,4.18256 -3.06372,4.18256 0.11276,0 0.46215,-0.14187 0.7764,-0.31526 z"
         id="path1006" />
      <path
         style="fill:#f9f9f9;stroke-width:0.208461"
         d="m 201.13556,116.24269 c -0.63996,-0.26705 -1.42491,-1.8835 -2.36597,-4.8722 -0.79568,-2.52701 -0.79488,-3.22062 0.001,-1.21068 l 0.61229,1.5455 0.69369,-0.4367 c 0.38153,-0.24018 0.72828,-0.49962 0.77056,-0.57652 0.0724,-0.13161 -0.83415,-2.68081 -1.124,-3.1608 -0.22506,-0.37272 -1.20636,-4.19166 -1.57526,-6.13052 -0.5167,-2.715581 -0.47455,-9.514251 0.0928,-14.965351 0.0493,-0.47373 0.14506,-1.49115 0.2128,-2.26096 0.12112,-1.37642 0.15744,-1.72656 0.3797,-3.66059 0.0613,-0.53294 0.16345,-1.45347 0.22712,-2.04562 0.0637,-0.59216 0.29335,-2.38478 0.5104,-3.98359 0.21704,-1.59882 0.44583,-3.29454 0.50842,-3.76826 0.14457,-1.09429 0.81001,-5.23812 1.0853,-6.75842 0.11551,-0.63793 0.21002,-1.34044 0.21002,-1.56114 0,-0.97826 -1.49501,0.0504 -1.67481,1.15238 -0.0635,0.38902 -0.29712,1.82164 -0.51922,3.18359 -0.47377,2.90526 -1.71572,12.23455 -2.07072,15.55495 -0.13597,1.27171 -0.28903,2.26758 -0.34015,2.21305 -0.0511,-0.0545 -0.11514,-3.27523 -0.14228,-7.15711 -0.0538,-7.69243 0.14991,-10.46787 0.94112,-12.82184 0.54658,-1.62613 0.83593,-2.14101 1.88598,-3.35595 1.12761,-1.30468 1.74613,-1.73262 2.81101,-1.94488 1.06855,-0.213 1.12295,-0.16778 1.71004,1.42143 0.39123,1.05903 0.39488,1.13766 0.0649,1.3991 -0.19229,0.15236 -0.49631,0.51925 -0.67558,0.81533 -0.32433,0.53564 -0.31945,0.54338 0.97751,1.55367 1.13218,0.88193 2.64601,2.16643 3.3713,2.86057 0.12375,0.11843 0.95035,0.88569 1.8369,1.70503 2.78875,2.57733 4.29302,4.34934 4.91532,5.79024 1.10293,2.55377 1.76759,5.07844 2.33508,8.86974 0.23342,1.55949 0.51483,8.10004 0.51417,11.95076 -8.7e-4,6.237631 -0.47662,9.798371 -1.5817,11.843101 -0.53827,0.99597 -3.33792,4.1152 -4.77279,5.31761 -0.44398,0.37206 -1.15367,0.96946 -1.57708,1.32755 -1.03319,0.87381 -2.97835,1.81506 -4.37637,2.1177 -0.97601,0.21129 -3.40989,0.24261 -3.87187,0.0498 z m 1.84696,-17.099121 c 0.54799,-0.30235 0.64291,-0.51449 0.91695,-2.04937 0.39901,-2.23473 0.49102,-2.88331 0.41983,-2.95927 -0.0647,-0.069 -1.25268,0.48613 -1.48542,0.69416 -0.0463,0.0413 -0.29334,1.38484 -0.74326,4.04158 -0.11413,0.67393 0.0655,0.72888 0.8919,0.2729 z"
         id="path1045" />
      <path
         style="fill:#ffffff;stroke-width:0.208461"
         d="m 128.02843,108.66814 c -0.29259,-0.3849 -0.9068,-1.18431 -1.36492,-1.77647 -1.06945,-1.38235 -2.0134,-3.51056 -2.00126,-4.51199 0.003,-0.23141 -0.0761,-0.52513 -0.17535,-0.65272 -0.17792,-0.22874 -0.0852,-7.90623 0.11836,-9.80065 0.28526,-2.65474 0.40202,-3.47137 0.55417,-3.87593 0.22267,-0.59206 0.51198,-2.23563 0.42114,-2.39246 -0.0493,-0.0851 -0.0209,-0.1872 0.063,-0.22692 0.16842,-0.0797 0.88239,-2.03642 0.9299,-2.54851 0.0165,-0.17765 0.0865,-0.37144 0.15561,-0.43066 0.0691,-0.0592 0.46646,-0.8344 0.88301,-1.72263 0.88579,-1.88881 3.01309,-5.5086 3.61722,-6.15501 0.23069,-0.24683 2.45852,-2.69351 4.95075,-5.43706 2.49223,-2.74355 4.58114,-4.98827 4.64203,-4.98827 0.16793,0 0.95289,1.71837 1.22955,2.69161 0.13466,0.47373 0.33493,0.98244 0.44505,1.13048 0.11013,0.14804 0.14595,0.26916 0.0796,0.26916 -0.0663,0 -0.0235,0.26647 0.0951,0.59216 0.11867,0.32568 0.25921,0.97827 0.31233,1.45018 0.0531,0.47191 0.18004,0.96531 0.28204,1.09645 0.102,0.13114 0.14519,0.28141 0.096,0.33394 -0.0492,0.0525 0.092,1.25484 0.31387,2.6718 0.22185,1.41697 0.44245,2.96389 0.49022,3.43762 0.0963,0.95526 0.33711,4.49391 0.35163,5.16789 0.0187,0.86716 -0.26499,3.90536 -0.46223,4.95052 -0.11154,0.59102 -0.1589,1.19663 -0.10525,1.3458 0.0537,0.14917 0.0212,0.27122 -0.0721,0.27122 -0.0933,0 -0.22831,0.41181 -0.29996,0.91515 -0.22574,1.58573 -1.57782,5.34064 -2.79084,7.75052 -0.6425,1.27645 -1.19056,2.44052 -1.21791,2.58683 -0.0273,0.14632 -0.18593,0.38443 -0.35243,0.52912 -0.16649,0.14471 -0.24597,0.26618 -0.17661,0.26995 0.0694,0.004 -0.26522,0.46711 -0.74351,1.02966 -0.47828,0.56254 -0.85289,1.07394 -0.83244,1.13642 0.0393,0.12021 -2.43493,2.4495 -3.79727,3.57483 -1.38868,1.14708 -3.30101,2.00889 -4.47044,2.01466 -0.47589,0.002 -0.76995,-0.17307 -1.168,-0.69669 z m 2.07568,-11.85906 c 0.55938,-0.55352 2.44805,-3.19621 2.45085,-3.4293 0.003,-0.26982 -0.58981,-0.181 -1.0801,0.16178 -0.51057,0.35694 -2.3493,2.71948 -2.74577,3.52798 -0.24283,0.49518 -0.23116,0.50816 0.32482,0.36086 0.31719,-0.084 0.78978,-0.36363 1.0502,-0.62132 z"
         id="path1871" />
      <path
         style="fill:#000000;stroke-width:0.208461"
         d="m 201.13556,116.23999 c -0.64938,-0.26775 -1.49769,-1.97869 -2.38634,-4.81297 -0.77682,-2.47762 -0.76542,-3.24792 0.0194,-1.3125 0.33461,0.82511 0.6265,1.51624 0.64866,1.53585 0.0222,0.0196 0.37769,-0.19449 0.79007,-0.47579 l 0.74978,-0.51145 -0.68874,-1.71692 c -0.84965,-2.11804 -1.43953,-4.17138 -2.0439,-7.11478 -0.42913,-2.08989 -0.45824,-2.65192 -0.38478,-7.42884 0.11357,-7.38577 1.29502,-18.60178 3.05123,-28.96666 0.30094,-1.77608 0.49178,-3.28833 0.4241,-3.36055 -0.0677,-0.0722 -0.42214,0.0551 -0.78769,0.28287 -0.61869,0.38553 -0.68803,0.54735 -1.00304,2.34053 -0.67067,3.81774 -2.03304,13.84934 -2.49321,18.35842 -0.0763,0.74746 -0.1968,1.29701 -0.26782,1.22124 -0.20998,-0.22405 -0.21979,-13.61456 -0.0114,-15.60767 0.38227,-3.65677 1.16821,-5.83637 2.74384,-7.60932 0.97997,-1.1027 1.97129,-1.73913 3.02192,-1.94011 0.75428,-0.14428 0.89828,0.006 1.45601,1.51532 l 0.41238,1.11629 -0.59745,0.6824 c -0.3286,0.37533 -0.59745,0.75314 -0.59745,0.83959 0,0.0865 0.88545,0.88496 1.96766,1.77446 2.62138,2.15457 7.22777,6.53442 8.18499,7.78245 1.26491,1.6492 2.23805,4.31765 3.07632,8.43567 0.65074,3.19671 0.86328,7.09435 0.79844,14.64237 -0.0833,9.69701 -0.35047,10.70243 -3.8359,14.43494 -3.29554,3.52916 -5.62652,5.18617 -8.20772,5.83454 -0.95153,0.23902 -3.51343,0.27747 -4.03935,0.0606 z m 1.85471,-17.1007 c 0.43387,-0.23938 0.62087,-0.53339 0.71902,-1.13047 0.073,-0.44383 0.26026,-1.47546 0.41623,-2.29252 0.15596,-0.81706 0.24501,-1.52672 0.19787,-1.57701 -0.0677,-0.0722 -1.24914,0.47494 -1.48951,0.6898 -0.0463,0.0413 -0.29334,1.38484 -0.74326,4.04158 -0.11438,0.6754 0.0652,0.72903 0.89965,0.26862 z"
         id="path1910" />
      <path
         style="fill:#ffffff;fill-opacity:1;stroke-width:0.208461"
         d="m 200.87865,115.83676 c -0.49428,-0.52738 -1.06124,-1.70448 -1.71885,-3.56861 -0.57206,-1.62162 -0.65776,-2.26192 -0.17203,-1.28522 0.1767,0.35529 0.34625,0.67735 0.37679,0.7157 0.0544,0.0683 0.94391,-0.406 1.46719,-0.78223 0.20892,-0.15021 0.11812,-0.56854 -0.43403,-1.99967 -1.31081,-3.39754 -2.24095,-7.25084 -2.46737,-10.22159 -0.16467,-2.16077 0.20882,-10.13118 0.7293,-15.56317 0.49642,-5.1809 0.99034,-9.0053 2.03039,-15.72116 0.44663,-2.88395 0.76493,-5.29381 0.70735,-5.35525 -0.22022,-0.23498 -1.14069,0.18376 -1.4263,0.64885 -0.42568,0.69317 -1.79009,9.58597 -2.89768,18.8861 l -0.16669,1.39964 -0.16648,-2.15329 c -0.22211,-2.87298 0.0271,-11.97373 0.3817,-13.94022 0.15507,-0.8599 0.4705,-2.09641 0.70094,-2.74778 0.85095,-2.40531 3.13573,-4.73757 4.71553,-4.81352 0.60012,-0.0288 0.696,0.0635 1.19014,1.14582 l 0.53744,1.17721 -0.58789,0.71442 c -0.32334,0.39292 -0.58789,0.79736 -0.58789,0.89874 0,0.10139 0.88545,0.93959 1.96767,1.86268 2.77025,2.36292 5.98919,5.39849 7.44233,7.0184 1.92145,2.14197 2.99715,4.82984 3.91403,9.78008 0.80182,4.329 0.88684,20.14915 0.12402,23.07787 -0.44049,1.69122 -1.2242,2.97396 -3.03709,4.97101 -4.08963,4.50504 -7.09578,6.27692 -10.6494,6.27692 -1.29764,0 -1.64807,-0.0749 -1.97312,-0.42173 z M 203.27351,99.086 c 0.32282,-0.28302 0.53042,-0.93408 0.8339,-2.61525 0.22225,-1.23113 0.36097,-2.28442 0.30828,-2.34065 -0.14146,-0.15093 -0.96988,0.10455 -1.37697,0.42464 -0.32364,0.25448 -0.44747,0.76395 -1.04901,4.31593 -0.0862,0.50918 -0.0334,0.59215 0.37684,0.59215 0.26243,0 0.67055,-0.16957 0.90696,-0.37682 z"
         id="path3846" />
      <path
         style="fill:#ffffff;fill-opacity:1;stroke-width:0.416922"
         d="m 126.8643,106.87645 c -2.14565,-3.19707 -2.65747,-5.68824 -2.33447,-11.362601 0.66226,-11.63417 2.80408,-16.56718 11.09379,-25.55097 2.7866,-3.01992 5.21331,-5.33417 5.39268,-5.14279 0.72064,0.76891 1.96187,5.45455 2.54812,9.61916 1.45572,10.34114 0.59758,16.63026 -3.37024,24.70009 -2.36711,4.814271 -8.09881,10.120951 -10.93155,10.120951 -0.50667,0 -1.3831,-0.87114 -2.39833,-2.38384 z m 4.0392,-11.038221 c 1.67931,-1.94086 2.10705,-3.28992 0.80789,-2.54807 -0.66381,0.37906 -2.22985,2.33782 -3.04134,3.80403 -0.68712,1.24151 0.79242,0.4095 2.23345,-1.25596 z"
         id="path3885" />
    </g>
  </g>
</svg>
