<?xml version="1.0" encoding="UTF-8" standalone="no"?>
<!-- Created with Inkscape (http://www.inkscape.org/) -->

<svg
   width="100mm"
   height="60mm"
   viewBox="0 0 100 60"
   version="1.1"
   id="svg5"
   inkscape:version="1.1.1 (3bf5ae0d25, 2021-09-20)"
   sodipodi:docname="asaa1.svg"
   xmlns:inkscape="http://www.inkscape.org/namespaces/inkscape"
   xmlns:sodipodi="http://sodipodi.sourceforge.net/DTD/sodipodi-0.dtd"
   xmlns="http://www.w3.org/2000/svg"
   xmlns:svg="http://www.w3.org/2000/svg">
  <sodipodi:namedview
     id="namedview7"
     pagecolor="#ffffff"
     bordercolor="#666666"
     borderopacity="1.0"
     inkscape:pageshadow="2"
     inkscape:pageopacity="0.0"
     inkscape:pagecheckerboard="false"
     inkscape:document-units="mm"
     showgrid="false"
     inkscape:zoom="1.515625"
     inkscape:cx="185.07216"
     inkscape:cy="212.7835"
     inkscape:window-width="1920"
     inkscape:window-height="1001"
     inkscape:window-x="-9"
     inkscape:window-y="-9"
     inkscape:window-maximized="1"
     inkscape:current-layer="layer1"
     width="209mm"
     borderlayer="false" />
  <defs
     id="defs2" />
  <g
     inkscape:label="Layer 1"
     inkscape:groupmode="layer"
     id="layer1">
    <path
       style="fill:#000000;fill-opacity:1;fill-rule:nonzero;stroke:none;stroke-width:0.446818"
       id="path104"
       d="M 20.238029,4.7398126 C 16.210433,8.8909024 12.170797,12.959211 8.5031605,17.482591 c -2.4242164,3.28279 -4.4568294,6.94217 -5.5607374,10.97671 -0.207722,0.7592 -0.348312,1.53748 -0.522469,2.30622 -0.743271,4.39592 -1.100896,8.88201 -0.780879,13.3401 0.173633,2.52842 1.227861,4.75669 2.270226,6.97843 0,0 1.394922,-0.84781 1.394922,-0.84781 v 0 c -1.03903,-2.19923 -2.083404,-4.40574 -2.253421,-6.91264 -0.317413,-4.44057 0.0311,-8.91062 0.791578,-13.28607 0.177227,-0.76438 0.32186,-1.53821 0.531686,-2.29314 1.115375,-4.01293 3.142485,-7.6509 5.5693484,-10.91128 3.6738235,-4.52126 7.7362415,-8.6145885 11.7834905,-12.7502884 0,0 -1.488876,0.65699 -1.488876,0.65699 z" />
    <path
       style="fill:#000000;fill-opacity:1;fill-rule:nonzero;stroke:none;stroke-width:0.446818"
       id="path106"
       d="m 19.166922,4.9342126 c 2.67621,4.6478698 3.284447,9.1342684 3.938042,14.4568984 0.526383,3.96803 0.598601,7.951 -0.07681,11.9026 -0.384622,2.25028 -0.633884,2.835 -1.284099,4.97565 -0.983384,2.56558 -1.95282,5.1829 -3.398669,7.50425 -0.713052,1.14483 -1.267112,1.769 -2.095334,2.79301 -1.811083,1.94534 -3.736306,3.78354 -5.969111,5.15646 0.853009,-0.71393 0.653175,-0.43931 -0.255977,-0.17783 -0.6108125,0.1757 -0.9634065,0.20966 -1.5817095,0.30372 0,0 -1.2941774,1.03223 -1.2941774,1.03223 v 0 c 1.7294704,-0.24193 3.1276409,-0.66993 4.6350649,-1.77486 2.214076,-1.40281 4.139701,-3.24094 5.934047,-5.20278 0.84355,-1.05927 1.349607,-1.632 2.076723,-2.8168 1.433281,-2.33545 2.408799,-4.95311 3.373052,-7.53292 0.646446,-2.16568 0.884519,-2.72354 1.265088,-4.99845 0.663259,-3.96477 0.579026,-7.95601 0.04252,-11.93351 -0.390267,-3.1951 -0.718909,-6.43115 -1.683024,-9.5051986 -0.554625,-1.7684099 -1.463868,-3.3805998 -2.228016,-5.0467698 0,0 -1.397605,0.8643 -1.397605,0.8643 z" />
    <path
       style="fill:#000000;fill-opacity:1;fill-rule:nonzero;stroke:none;stroke-width:0.446818"
       id="path108"
       d="m 78.795545,5.1175826 c -1.04423,5.8112484 -1.81507,11.6802084 -2.53104,17.5477884 -0.58003,5.89006 -1.2672,11.79623 -1.26832,17.72699 0.10757,3.47759 0.93814,6.86813 1.99799,10.14027 0.35695,1.16364 0.8125,2.28175 1.32345,3.3755 0,0 1.40147,-0.852 1.40147,-0.852 v 0 c -0.51625,-1.08215 -0.97039,-2.19151 -1.32675,-3.34723 -1.05284,-3.2547 -1.88009,-6.62515 -1.98389,-10.08427 0.003,-5.91496 0.63851,-11.809 1.23079,-17.68282 0.72254,-5.88583 1.51727,-11.770359 2.60789,-17.5919184 0,0 -1.45159,0.76769 -1.45159,0.76769 z" />
    <path
       style="fill:#000000;fill-opacity:1;fill-rule:nonzero;stroke:none;stroke-width:0.446818"
       id="path110"
       d="m 81.972595,5.6882826 c 2.68896,1.9340199 5.11055,4.2471998 7.50161,6.5737084 0.60825,0.54729 2.18868,1.91169 2.70074,2.59698 1.71698,2.29773 2.42352,5.39356 3.09837,8.17274 0.940356,4.56059 0.974786,9.25102 1.038636,13.89801 0.005,3.86677 0.10463,7.82244 -0.986626,11.54788 -1.21586,3.15036 -3.70148,5.23968 -6.10265,7.32878 -1.99629,1.72605 -2.86841,2.24173 -5.32132,2.92787 -1.39357,0.29566 -2.87638,0.48331 -4.23626,-0.0469 -1.01144,-1.05472 -1.45454,-2.66241 -1.92707,-4.05295 -0.80203,-2.50616 -1.4576,-5.02695 -1.8296,-7.64636 -0.4256,-3.54585 -0.48354,-7.12488 -0.52646,-10.6945 -0.0229,-2.60539 -0.008,-5.21087 -0.003,-7.81629 0.007,-2.40836 0.005,-4.81673 0.005,-7.22511 -0.002,-2.92965 -0.001,-5.85933 -8.7e-4,-8.78898 0.0902,-2.252149 0.50483,-5.1026185 1.49308,-7.1304584 0.20861,-0.42806 0.49205,-0.80963 0.73807,-1.21445 0.68117,-0.84455 0.90492,-1.1998501 1.69649,-1.8951701 0.26363,-0.23157 0.58801,-0.38196 0.83421,-0.63444 0.16909,-0.1734 -0.81803,0.30323 -0.59926,0.39347 0.25522,0.10536 0.50293,-0.23175 0.76177,-0.32644 0.23359,-0.0855 0.47556,-0.14216 0.71334,-0.21318 1.65783,-0.39132 1.34527,0.4599 1.94038,1.73715 0.14191,0.3045201 0.33622,0.5778801 0.50432,0.8668301 0,0 1.39309,-0.8644601 1.39309,-0.8644601 v 0 c -0.16218,-0.27931 -0.35091,-0.54302 -0.48677,-0.83792 -0.59891,-1.29992 -0.35391,-2.32068997 -2.06849,-1.95188997 -2.46607,0.68024997 -4.61803,2.25620997 -6.15374,4.41387007 -0.24249,0.41516 -0.52129,0.80856 -0.72745,1.2455 -1.01149,2.1437899 -1.35536,4.8281784 -1.46519,7.1869184 8.6e-4,2.93015 0.002,5.86029 -0.002,8.79042 -10e-4,2.40909 -0.005,4.81816 -0.01,7.22723 -0.007,2.60401 -0.01,5.20818 0.0164,7.8121 0.0492,3.57626 0.10954,7.16197 0.53796,10.7142 0.37075,2.63147 1.0203,5.16764 1.83142,7.68354 0.48779,1.44574 0.94801,3.0799 1.98703,4.18738 1.37026,0.58185 2.88076,0.411 4.30212,0.12735 3.00704,-0.8052 5.6669,-2.55165 8.07545,-4.60697 2.41347,-2.10716 4.89586,-4.23425 6.076706,-7.42608 1.04894,-3.74836 0.95264,-7.70383 0.94082,-11.58251 -0.0618,-4.6604 -0.0969,-9.36539 -1.05019,-13.93714 -0.685566,-2.80658 -1.407666,-5.93208 -3.134806,-8.25741 -0.51078,-0.68769 -2.09151,-2.05087 -2.70331,-2.60104 -2.39704,-2.3296486 -4.82095,-4.6437785 -7.4912,-6.6172684 0,0 -1.36123,0.93599 -1.36123,0.93599 z" />
    <path
       style="fill:#000000;stroke-width:0.446818"
       id="path688"
       d="m 4.0257231,49.880361 c 0.308559,1.00738 0.889523,1.87855 1.526907,2.67719 0.591597,0.68384 1.366502,0.96847 2.211051,1.06714 0.5480034,0.0427 1.0409224,-0.12926 1.5322934,-0.36015 0.0731,-0.0347 0.146193,-0.0693 0.219286,-0.10397 0,0 1.2619505,-1.06862 1.2619505,-1.06862 v 0 c -0.07238,0.0356 -0.144754,0.0713 -0.217136,0.10693 -0.07396,0.0326 -0.147909,0.0652 -0.221867,0.0979 -0.06737,0.037 -0.132819,0.0783 -0.202126,0.11112 -0.3378875,0.15979 -0.7040875,0.20664 -1.0699305,0.22524 -0.8167864,-0.0544 -1.5748874,-0.30372 -2.1599954,-0.94625 -0.63209,-0.76847 -1.205242,-1.62261 -1.453941,-2.62568 0,0 -1.426492,0.81912 -1.426492,0.81912 z" />
    <path
       style="fill:#000000;stroke-width:0.446818"
       id="path696"
       d="m 10.008785,36.202931 c -0.8865985,1.19436 -1.7116875,2.43941 -2.5570439,3.66698 0,0 1.4597324,-0.67285 1.4597324,-0.67285 v 0 c 0.851098,-1.23192 1.6829315,-2.48159 2.5892845,-3.66852 0,0 -1.491973,0.67439 -1.491973,0.67439 z" />
    <path
       style="fill:#000000;stroke-width:0.446818"
       id="path700"
       d="m 81.751685,37.260531 c -0.34991,1.5234 -0.58423,3.07053 -0.81432,4.61811 0,0 1.43125,-0.74774 1.43125,-0.74774 v 0 c 0.23528,-1.54705 0.47211,-3.09465 0.83899,-4.61426 0,0 -1.45592,0.74389 -1.45592,0.74389 z" />
    <path
       style="fill:#f2f2f2;stroke-width:0.147404"
       d="m 7.0339011,51.601731 c -0.344959,-0.33926 -0.840534,-1.05588 -1.101282,-1.59247 -0.397919,-0.81888 -0.522407,-0.96269 -0.774823,-0.8951 -0.265441,0.0711 -0.370122,-0.0979 -0.891924,-1.43938 -0.815909,-2.09769 -1.006611,-2.96881 -1.187091,-5.4227 -0.257291,-3.49827 0.234235,-9.49692 1.087868,-13.27641 0.925716,-4.09863 3.126525,-8.56105 6.0711119,-12.30994 1.31773,-1.67766 4.772257,-5.52322 7.38352,-8.2192885 l 2.176511,-2.2471899 0.513509,1.1983299 c 1.189306,2.7754095 1.8934,5.7286985 2.546642,10.6817685 0.717932,5.44362 0.720567,9.76421 0.0082,13.51793 -0.450861,2.37587 -0.904927,3.91606 -1.87566,6.36221 -1.983772,4.99893 -3.370596,7.21008 -6.330612,10.09349 -1.689795,1.64607 -3.261974,2.8997 -3.971437,3.16679 -0.298588,0.1124 -0.9238695,0.28662 -1.3895115,0.38714 -0.465637,0.10053 -0.988844,0.27928 -1.1626764,0.39723 -0.422783,0.28685 -0.389034,0.29917 -1.102377,-0.40241 z m 1.2517424,-12.0098 c 0.534489,-0.24446 0.860792,-0.60293 1.9510535,-2.14344 0.720073,-1.01744 1.281459,-1.87951 1.24752,-1.91572 -0.03396,-0.0362 -0.394748,0.0818 -0.801807,0.26235 -0.655128,0.29049 -0.8757295,0.52231 -1.9212275,2.01894 -1.6568764,2.37182 -1.6405254,2.31068 -0.475539,1.77787 z"
       id="path854" />
    <path
       style="fill:#f9f9f9;stroke-width:0.147404"
       d="m 80.175725,58.752321 c -0.83706,-0.27449 -1.40489,-1.26929 -2.29545,-4.02144 -0.67094,-2.07345 -1.43363,-4.88269 -1.42299,-5.24133 0.004,-0.13203 0.22348,0.39569 0.48791,1.17271 0.26444,0.77701 0.67428,1.85393 0.91078,2.39315 l 0.42998,0.9804 0.6635,-0.39567 c 0.36492,-0.21763 0.69473,-0.48253 0.7329,-0.58868 0.0382,-0.10615 -0.0942,-0.53756 -0.29422,-0.95867 -0.47411,-0.99828 -1.5743,-4.43284 -2.00819,-6.26915 -0.72507,-3.06867 -0.8456,-4.15594 -0.83548,-7.5369 0.0214,-7.159 1.52284,-21.17988 3.41368,-31.8780785 0.19782,-1.1192499 0.33065,-2.0659599 0.29517,-2.1038199 -0.0355,-0.0378 -0.38626,0.10514 -0.77952,0.31777 -0.67101,0.3628 -0.72497,0.43606 -0.87671,1.19025 -0.61251,3.0442998 -2.11987,14.0525384 -2.71619,19.8362484 l -0.40817,3.95877 0.0358,-9.66855 c 0.0343,-9.26929 0.0484,-9.726709 0.34148,-11.0769586 0.57955,-2.6699798 1.26712,-4.1121398 2.72413,-5.7138699 0.88386,-0.97165 1.55119,-1.4025 2.53754,-1.63836 0.53138,-0.12705 0.71819,-0.11194 0.99325,0.0804 0.18633,0.13026 0.34022,0.32091 0.34198,0.42365 0.002,0.10275 0.19297,0.59793 0.42491,1.10039 0.23194,0.5024601 0.42315,0.9581801 0.42491,1.0127201 0.002,0.0545 -0.22532,0.24301 -0.50462,0.41883 -0.30335,0.19098 -0.46745,0.38935 -0.40758,0.49272 0.0554,0.0957 -0.041,0.28666 -0.21559,0.4272 l -0.31581,0.25417 0.83043,0.6216999 c 2.02044,1.51261 6.71034,5.7812085 8.82875,8.0356585 1.62815,1.7327 2.43865,3.56788 3.47553,7.86947 0.79722,3.30735 1.08856,6.47987 1.235246,13.4513 0.12687,6.02944 -0.174166,10.15258 -0.911376,12.48254 -0.60304,1.90589 -2.07634,3.89061 -4.53585,6.11034 -3.10088,2.79858 -3.96105,3.38023 -6.04891,4.09035 -1.35405,0.46052 -3.69575,0.65131 -4.55119,0.37078 z m 2.66141,-19.91224 c 0.24294,-1.30765 0.43039,-2.38717 0.41655,-2.39892 -0.0138,-0.0118 -0.37573,0.15904 -0.80423,0.37956 -0.66329,0.34133 -0.79526,0.48008 -0.88792,0.93347 -0.12438,0.6086 -0.68759,4.01936 -0.68759,4.164 0,0.0526 0.34233,-0.0835 0.76074,-0.30247 l 0.76074,-0.39809 z"
       id="path893" />
    <path
       style="fill:#f9f9f9;stroke-width:0.208461"
       d="m 6.8900341,51.322491 c -0.299739,-0.38008 -0.673266,-0.95574 -0.830054,-1.27925 -0.156793,-0.32351 -0.503829,-0.74113 -0.77119,-0.92804 -0.491665,-0.34373 -1.717059,-3.15641 -1.849857,-4.24602 -0.02163,-0.17765 -0.10854,-0.8985 -0.193086,-1.60191 -0.47931,-3.98767 0.181276,-11.41414 1.399373,-15.73208 0.630511,-2.23505 2.25552,-5.76561 3.6426814,-7.91422 0.604444,-0.93624 1.09899,-1.73857 1.09899,-1.78296 0,-0.0444 0.204332,-0.31535 0.454075,-0.60213 0.2497435,-0.28678 0.8068855,-0.94524 1.2380995,-1.46325 0.431209,-0.51802 2.565371,-2.85699 4.742583,-5.197729 l 3.958563,-4.2558695 0.487249,1.1336 c 0.267988,0.62349 0.50988,1.2305099 0.537534,1.3489399 0.02764,0.11843 0.201546,0.65137 0.386421,1.18431 0.18488,0.5329396 0.378644,1.2112186 0.430595,1.5072986 0.05195,0.29608 0.177989,0.87747 0.280083,1.29198 0.19867,0.80662 1.00293,5.92507 1.099621,6.99819 0.595049,6.60421 0.503492,8.28535 -0.791788,14.53884 -0.03724,0.17991 -0.297685,0.93087 -0.578711,1.66879 -0.281022,0.73793 -0.478735,1.34168 -0.439359,1.34168 0.204055,0 -2.807609,6.08468 -3.495962,7.06315 -2.080598,2.95748 -5.71163,6.2809 -7.501754,6.86622 -0.6104835,0.19961 -1.2007825,0.3938 -1.3117785,0.43152 -1.1028054,0.37484 -1.4559664,0.30906 -1.9923284,-0.37106 z m 1.4737794,-11.72114 c 0.484817,-0.2675 0.942811,-0.7656 1.7889995,-1.94569 1.450922,-2.02344 1.524359,-2.30661 0.498318,-1.92161 -0.7937355,0.29784 -3.6392909,4.18256 -3.0637209,4.18256 0.112766,0 0.462147,-0.14187 0.7764034,-0.31526 z"
       id="path1006" />
    <path
       style="fill:#f9f9f9;stroke-width:0.208461"
       d="m 79.983675,58.634441 c -0.63996,-0.26705 -1.42491,-1.8835 -2.36597,-4.8722 -0.79568,-2.52701 -0.79488,-3.22062 0.001,-1.21068 l 0.61229,1.5455 0.69369,-0.4367 c 0.38153,-0.24018 0.72828,-0.49962 0.77056,-0.57652 0.0724,-0.13161 -0.83415,-2.68081 -1.124,-3.1608 -0.22506,-0.37272 -1.20636,-4.19165 -1.57526,-6.13051 -0.5167,-2.71559 -0.47455,-9.51426 0.0928,-14.96536 0.0493,-0.47373 0.14506,-1.49115 0.2128,-2.26096 0.12112,-1.37642 0.15744,-1.72656 0.3797,-3.66059 0.0613,-0.53294 0.16345,-1.45347 0.22712,-2.04562 0.0637,-0.59216 0.29335,-2.38478 0.5104,-3.98359 0.21704,-1.59882 0.44583,-3.29454 0.50842,-3.76826 0.14457,-1.09429 0.81001,-5.2381185 1.0853,-6.7584185 0.11551,-0.6379299 0.21002,-1.3404399 0.21002,-1.5611399 0,-0.97826 -1.49501,0.0504 -1.67481,1.15238 -0.0635,0.3890199 -0.29712,1.8216399 -0.51922,3.1835898 -0.47377,2.9052586 -1.71572,12.2345486 -2.07072,15.5549486 -0.13597,1.27171 -0.28903,2.26758 -0.34015,2.21305 -0.0511,-0.0545 -0.11514,-3.27523 -0.14228,-7.15711 -0.0538,-7.69243 0.14991,-10.4678686 0.94112,-12.8218385 0.54658,-1.6261299 0.83593,-2.1410099 1.88598,-3.3559499 1.12761,-1.3046801 1.74613,-1.7326201 2.81101,-1.9448801 1.06855,-0.213 1.12295,-0.16778 1.71004,1.42143 0.39123,1.0590301 0.39488,1.1376601 0.0649,1.3991001 -0.19229,0.15236 -0.49631,0.51925 -0.67558,0.81533 -0.32433,0.53564 -0.31945,0.54338 0.97751,1.5536699 1.13218,0.88193 2.64601,2.1664299 3.3713,2.8605699 0.12375,0.11843 0.95035,0.8856896 1.8369,1.7050286 2.78875,2.57733 4.29302,4.34934 4.91532,5.79024 1.10293,2.55377 1.76759,5.07844 2.33508,8.86974 0.23342,1.55949 0.514826,8.10004 0.514166,11.95076 -8.7e-4,6.23764 -0.476616,9.79837 -1.581696,11.8431 -0.53827,0.99597 -3.33792,4.1152 -4.77279,5.31761 -0.44398,0.37206 -1.15367,0.96946 -1.57708,1.32755 -1.03319,0.87381 -2.97835,1.81506 -4.37637,2.1177 -0.97601,0.21129 -3.40989,0.24261 -3.87187,0.0498 z m 1.84696,-17.09912 c 0.54799,-0.30235 0.64291,-0.51449 0.91695,-2.04937 0.39901,-2.23473 0.49102,-2.88331 0.41983,-2.95927 -0.0647,-0.069 -1.25268,0.48613 -1.48542,0.69416 -0.0463,0.0413 -0.29334,1.38484 -0.74326,4.04158 -0.11413,0.67393 0.0655,0.72888 0.8919,0.2729 z"
       id="path1045" />
    <path
       style="fill:#ffffff;stroke-width:0.208461"
       d="m 6.8765421,51.059891 c -0.292589,-0.3849 -0.906804,-1.18431 -1.364923,-1.77647 -1.069446,-1.38235 -2.013399,-3.51055 -2.001261,-4.51198 0.0026,-0.23141 -0.07611,-0.52513 -0.17535,-0.65272 -0.177919,-0.22874 -0.0852,-7.90624 0.118364,-9.80066 0.285256,-2.65474 0.402015,-3.47137 0.554166,-3.87593 0.222669,-0.59206 0.511987,-2.23563 0.421144,-2.39246 -0.04929,-0.0851 -0.02094,-0.1872 0.06301,-0.22692 0.16842,-0.0797 0.882386,-2.03642 0.929899,-2.54851 0.01648,-0.17765 0.08651,-0.37144 0.155612,-0.43066 0.06911,-0.0592 0.466459,-0.8344 0.883013,-1.72263 0.885786,-1.88881 3.0130884,-5.5086 3.6172119,-6.15501 0.230689,-0.24683 2.458528,-2.69351 4.950757,-5.43706 2.492229,-2.7435486 4.581136,-4.9882685 4.642024,-4.9882685 0.167931,0 0.952894,1.71837 1.229552,2.6916099 0.134658,0.47373 0.334932,0.9824396 0.445055,1.1304796 0.110123,0.14804 0.145944,0.269159 0.0796,0.269159 -0.06634,0 -0.02353,0.26647 0.09512,0.59216 0.118661,0.32568 0.259203,0.97827 0.312322,1.45018 0.05312,0.47191 0.180039,0.96531 0.282043,1.09645 0.102003,0.13114 0.145187,0.28141 0.09596,0.33394 -0.04923,0.0525 0.09201,1.25484 0.313867,2.6718 0.221851,1.41697 0.442456,2.96389 0.490228,3.43762 0.09633,0.95526 0.337109,4.49391 0.35163,5.16789 0.01869,0.86716 -0.264999,3.90536 -0.462237,4.95052 -0.111538,0.59102 -0.158899,1.19663 -0.105252,1.3458 0.05365,0.14917 0.02119,0.27122 -0.07214,0.27122 -0.09333,0 -0.228309,0.41181 -0.29996,0.91515 -0.225735,1.58573 -1.57782,5.34064 -2.790838,7.75052 -0.642502,1.27645 -1.190556,2.44053 -1.217903,2.58684 -0.02734,0.14632 -0.185939,0.38443 -0.352434,0.52912 -0.166495,0.14471 -0.245971,0.26618 -0.176613,0.26995 0.06936,0.004 -0.26522,0.46711 -0.743506,1.02966 -0.478285,0.56254 -0.852889,1.07394 -0.832446,1.13642 0.03932,0.1202 -2.434922,2.44949 -3.797267,3.57482 -1.38868,1.14708 -3.3010055,2.00889 -4.4704429,2.01466 -0.475881,0.002 -0.769949,-0.17307 -1.167993,-0.69669 z m 2.0756794,-11.85906 c 0.559379,-0.55352 2.4480515,-3.19621 2.4508505,-3.4293 0.003,-0.26982 -0.58981,-0.181 -1.0801,0.16178 -0.5105685,0.35694 -2.3493009,2.71948 -2.7457699,3.52798 -0.242835,0.49518 -0.231156,0.50816 0.324823,0.36086 0.317189,-0.084 0.7897784,-0.36363 1.0501964,-0.62132 z"
       id="path1871" />
    <path
       style="fill:#000000;stroke-width:0.208461"
       d="m 79.983675,58.631741 c -0.64938,-0.26775 -1.49769,-1.97869 -2.38634,-4.81297 -0.77682,-2.47762 -0.76542,-3.24792 0.0194,-1.3125 0.33461,0.82511 0.6265,1.51624 0.64866,1.53585 0.0222,0.0196 0.37769,-0.19449 0.79007,-0.47579 l 0.74978,-0.51145 -0.68874,-1.71692 c -0.84965,-2.11804 -1.43953,-4.17138 -2.0439,-7.11477 -0.42913,-2.0899 -0.45824,-2.65193 -0.38478,-7.42885 0.11357,-7.38577 1.29502,-18.60178 3.05123,-28.9666585 0.30094,-1.7760799 0.49178,-3.2883299 0.4241,-3.3605499 -0.0677,-0.0722 -0.42214,0.0551 -0.78769,0.28287 -0.61869,0.38553 -0.68803,0.54735 -1.00304,2.3405299 -0.67067,3.8177385 -2.03304,13.8493385 -2.49321,18.3584185 -0.0763,0.74746 -0.1968,1.29701 -0.26782,1.22124 -0.20998,-0.22405 -0.21979,-13.61456 -0.0114,-15.60767 0.38227,-3.6567685 1.16821,-5.8363684 2.74384,-7.6093184 0.97997,-1.1027001 1.97129,-1.7391301 3.02192,-1.9401101 0.75428,-0.14428 0.89828,0.006 1.45601,1.51532 l 0.41238,1.1162901 -0.59745,0.6824 c -0.3286,0.37533 -0.59745,0.75314 -0.59745,0.83959 0,0.0865 0.88545,0.8849599 1.96766,1.7744599 2.62138,2.1545699 7.22777,6.5344185 8.18499,7.7824485 1.26491,1.6492 2.23805,4.31765 3.07632,8.43567 0.65074,3.19671 0.86328,7.09435 0.79844,14.64237 -0.0833,9.69701 -0.35047,10.70243 -3.8359,14.43494 -3.29554,3.52916 -5.62652,5.18617 -8.20772,5.83454 -0.95153,0.23902 -3.51343,0.27747 -4.03935,0.0606 z m 1.85471,-17.1007 c 0.43387,-0.23938 0.62087,-0.53339 0.71902,-1.13047 0.073,-0.44383 0.26026,-1.47546 0.41623,-2.29252 0.15596,-0.81706 0.24501,-1.52672 0.19787,-1.57701 -0.0677,-0.0722 -1.24914,0.47494 -1.48951,0.6898 -0.0463,0.0413 -0.29334,1.38484 -0.74326,4.04158 -0.11438,0.6754 0.0652,0.72903 0.89965,0.26862 z"
       id="path1910" />
    <path
       style="fill:#ffffff;fill-opacity:1;stroke-width:0.208461"
       d="m 79.726765,58.228511 c -0.49428,-0.52738 -1.06124,-1.70448 -1.71885,-3.56861 -0.57206,-1.62162 -0.65776,-2.26192 -0.17203,-1.28522 0.1767,0.35529 0.34625,0.67735 0.37679,0.7157 0.0544,0.0683 0.94391,-0.406 1.46719,-0.78223 0.20892,-0.15021 0.11812,-0.56854 -0.43403,-1.99967 -1.31081,-3.39754 -2.24095,-7.25083 -2.46737,-10.22159 -0.16467,-2.16077 0.20882,-10.13118 0.7293,-15.56317 0.49642,-5.1809 0.99034,-9.0053 2.03039,-15.7211586 0.44663,-2.8839499 0.76493,-5.2938098 0.70735,-5.3552498 -0.22022,-0.23498 -1.14069,0.18376 -1.4263,0.64885 -0.42568,0.69317 -1.79009,9.5859684 -2.89768,18.8860984 l -0.16669,1.39964 -0.16648,-2.15329 c -0.22211,-2.87298 0.0271,-11.97373 0.3817,-13.9402186 0.15507,-0.8598999 0.4705,-2.0964099 0.70094,-2.7477799 0.85095,-2.4053099 3.13573,-4.73757 4.71553,-4.81352 0.60012,-0.0288 0.696,0.0635 1.19014,1.14582 l 0.53744,1.1772101 -0.58789,0.71442 c -0.32334,0.39292 -0.58789,0.79736 -0.58789,0.89874 0,0.10139 0.88545,0.9395899 1.96767,1.8626799 2.77025,2.3629199 5.98919,5.3984885 7.44233,7.0183985 1.92145,2.14197 2.99715,4.82984 3.91403,9.78008 0.80182,4.329 0.88684,20.14916 0.12402,23.07787 -0.44049,1.69122 -1.2242,2.97396 -3.03709,4.97101 -4.08963,4.50504 -7.09578,6.27692 -10.6494,6.27692 -1.29764,0 -1.64807,-0.0749 -1.97312,-0.42173 z m 2.39486,-16.75076 c 0.32282,-0.28302 0.53042,-0.93408 0.8339,-2.61525 0.22225,-1.23113 0.36097,-2.28442 0.30828,-2.34065 -0.14146,-0.15093 -0.96988,0.10455 -1.37697,0.42464 -0.32364,0.25448 -0.44747,0.76395 -1.04901,4.31593 -0.0862,0.50918 -0.0334,0.59215 0.37684,0.59215 0.26243,0 0.67055,-0.16957 0.90696,-0.37682 z"
       id="path3846" />
    <path
       style="fill:#ffffff;fill-opacity:1;stroke-width:0.416922"
       d="m 5.7124161,49.268201 c -2.145655,-3.19706 -2.657474,-5.68823 -2.334471,-11.36259 0.662256,-11.63418 2.80408,-16.56719 11.0937909,-25.55098 2.786599,-3.0199186 5.213303,-5.3341685 5.392676,-5.1427885 0.720644,0.76891 1.96187,5.4545485 2.548121,9.6191585 1.455715,10.34114 0.597583,16.63027 -3.370246,24.7001 -2.367105,4.81426 -8.09881,10.12094 -10.9315439,10.12094 -0.50667,0 -1.383099,-0.87114 -2.398327,-2.38384 z m 4.0391944,-11.03821 c 1.6793145,-1.94086 2.1070495,-3.28992 0.8078945,-2.54807 -0.6638105,0.37906 -2.2298555,2.33782 -3.0413439,3.80403 -0.687121,1.24151 0.7924204,0.4095 2.2334494,-1.25596 z"
       id="path3885" />
    <path
       style="fill:#ffccaa;fill-opacity:1;stroke-width:0.0824742"
       d=""
       id="path8568"
       transform="scale(0.26458333)" />
  </g>
</svg>
